<svg width="360" height="260" viewBox="0 0 360 260" fill="none" xmlns="http://www.w3.org/2000/svg">
  <defs>
    <linearGradient id="hero-bg" x1="48" y1="24" x2="304" y2="236" gradientUnits="userSpaceOnUse">
      <stop offset="0" stop-color="#F6FAFF" />
      <stop offset="1" stop-color="#FFF5EB" />
    </linearGradient>
    <radialGradient id="hero-glow" cx="0" cy="0" r="1" gradientUnits="userSpaceOnUse" gradientTransform="translate(140 70) rotate(45) scale(160)">
      <stop offset="0" stop-color="#E3F1FF" stop-opacity="0.9" />
      <stop offset="1" stop-color="#E3F1FF" stop-opacity="0" />
    </radialGradient>
    <radialGradient id="hero-peach" cx="0" cy="0" r="1" gradientUnits="userSpaceOnUse" gradientTransform="translate(260 160) rotate(35) scale(120)">
      <stop offset="0" stop-color="#FFE8D0" stop-opacity="0.8" />
      <stop offset="1" stop-color="#FFE8D0" stop-opacity="0" />
    </radialGradient>
    <linearGradient id="hero-wave" x1="0" y1="0" x2="1" y2="0" gradientUnits="objectBoundingBox">
      <stop offset="0" stop-color="#9FC2ED" />
      <stop offset="1" stop-color="#F8C9D7" />
    </linearGradient>
    <linearGradient id="hero-pill" x1="0" y1="0" x2="1" y2="1" gradientUnits="objectBoundingBox">
      <stop offset="0" stop-color="#D6E4FF" />
      <stop offset="1" stop-color="#FFE4EC" />
    </linearGradient>
  </defs>

  <rect width="360" height="260" rx="36" fill="url(#hero-bg)" />

  <circle cx="140" cy="90" r="128" fill="url(#hero-glow)" />
  <circle cx="260" cy="160" r="120" fill="url(#hero-peach)" />

  <path
    d="M64 188C108 148 178 138 240 154C264 160 288 172 306 190"
    stroke="url(#hero-wave)"
    stroke-width="18"
    stroke-linecap="round"
    opacity="0.65"
  />
  <path
    d="M86 176C126 148 178 144 218 156"
    stroke="#FFFFFF"
    stroke-width="10"
    stroke-linecap="round"
    opacity="0.75"
  />

  <g opacity="0.9">
    <rect x="118" y="82" width="124" height="56" rx="28" fill="white" />
    <rect x="130" y="94" width="52" height="10" rx="5" fill="#C7DDF7" />
    <rect x="130" y="112" width="92" height="10" rx="5" fill="#F2CFE2" />
  </g>

  <g opacity="0.55">
    <rect x="84" y="52" width="48" height="28" rx="14" fill="url(#hero-pill)" />
    <rect x="232" y="48" width="32" height="32" rx="16" fill="#E9F1FF" />
    <rect x="70" y="198" width="42" height="24" rx="12" fill="#F8D7E2" />
    <rect x="256" y="206" width="36" height="20" rx="10" fill="#D9F1E6" />
  </g>

  <g opacity="0.4" stroke-width="4" stroke-linecap="round">
    <path d="M96 64L108 76" stroke="#DCE8FF" />
    <path d="M272 64L284 76" stroke="#FCD9E6" />
    <path d="M280 200L292 212" stroke="#D1E5FF" />
    <path d="M92 208L104 220" stroke="#FAD9E3" />
  </g>

  <g opacity="0.3" stroke="#CAD8F7" stroke-width="2.5">
    <path d="M142 142C148 148 154 150 160 150C166 150 172 148 178 142" stroke-linecap="round" />
    <circle cx="144" cy="126" r="4.5" />
    <circle cx="176" cy="126" r="4.5" />
  </g>
</svg>
